<?xml version="1.0" encoding="utf-8"?>
<svg xmlns="http://www.w3.org/2000/svg" viewBox="0 0 500 500" style="shape-rendering: geometricprecision;" xmlns:bx="https://boxy-svg.com" width="500px" height="500px"><defs><linearGradient gradientUnits="userSpaceOnUse" x1="281.955" y1="219.67" x2="281.955" y2="600.44" id="gradient-11"><stop offset="0" style="stop-color: color(srgb-linear 0 0 0)"/><stop offset="1" style="stop-color: color(srgb-linear 0 0 0)"/></linearGradient><linearGradient gradientUnits="userSpaceOnUse" x1="281.961" y1="114.84" x2="281.961" y2="600.44" id="gradient-12"><stop offset="0" style="stop-color: color(srgb-linear 0 0 0)"/><stop offset="1" style="stop-color: color(srgb-linear 0 0 0)"/></linearGradient><linearGradient gradientUnits="userSpaceOnUse" x1="281.96" y1="287.68" x2="281.96" y2="588.82" id="gradient-13"><stop offset="0" style="stop-color: color(srgb-linear 0 0 0)"/><stop offset="1" style="stop-color: color(srgb-linear 0 0 0)"/></linearGradient><linearGradient gradientUnits="userSpaceOnUse" x1="281.96" y1="114.84" x2="281.96" y2="597.081" id="gradient-14" gradientTransform="matrix(1, 0, 0, 1, 0, -0.821597)"><stop offset="0" style="stop-color: color(srgb-linear 0 0 0)"/><stop offset="1" style="stop-color: color(srgb-linear 0 0 0)"/></linearGradient><linearGradient gradientUnits="userSpaceOnUse" x1="281.965" y1="334.2" x2="281.965" y2="480.57" id="gradient-15" gradientTransform="matrix(1, 0, 0, 1, 0, -9.03756)"><stop offset="0" style="stop-color: color(srgb-linear 0 0 0)"/><stop offset="1" style="stop-color: color(srgb-linear 0 0 0)"/></linearGradient><linearGradient gradientUnits="userSpaceOnUse" x1="281.96" y1="112.72" x2="281.96" y2="156.56" id="gradient-16"><stop offset="0" style="stop-color: color(srgb-linear 0 0 0)"/><stop offset="1" style="stop-color: color(srgb-linear 0 0 0)"/></linearGradient><linearGradient gradientUnits="userSpaceOnUse" x1="429.886" y1="455.49" x2="429.886" y2="596.94" id="gradient-17"><stop offset="0" style="stop-color: color(srgb-linear 0 0 0)"/><stop offset="1" style="stop-color: color(srgb-linear 0 0 0)"/></linearGradient><linearGradient gradientUnits="userSpaceOnUse" x1="429.875" y1="307.93" x2="429.875" y2="455.49" id="gradient-18"><stop offset="0" style="stop-color: color(srgb-linear 0 0 0)"/><stop offset="1" style="stop-color: color(srgb-linear 0 0 0)"/></linearGradient><linearGradient gradientUnits="userSpaceOnUse" x1="429.874" y1="389" x2="429.874" y2="445.94" id="gradient-19"><stop offset="0" style="stop-color: color(srgb-linear 0 0 0)"/><stop offset="1" style="stop-color: color(srgb-linear 0 0 0)"/></linearGradient><bx:export><bx:file format="svg"/><bx:file format="svg" path="Untitled 2.svg" excluded="true"/></bx:export></defs><g id="Layer_2" data-name="Layer 2" transform="matrix(0.438371, 0.898794, -0.695637, 0.339284, -855.747314, 662.879883)" style="mix-blend-mode: darken; transform-origin: 1385.09px -412.88px;"/><g id="Chars" transform="matrix(1, 0, 0, 1, -96.722511, -103.391838)" style=""><g id="WINE"><path class="cls-2" d="M 282 219.67 C 315.64 219.67 342.91 246.94 342.91 280.58 L 342.91 575.66 C 342.91 589.346 331.816 600.44 318.13 600.44 L 245.83 600.44 C 239.249 600.453 232.934 597.848 228.276 593.2 C 223.618 588.551 221 582.241 221 575.66 L 221 280.58 C 221 264.41 227.43 248.904 238.872 237.478 C 250.314 226.053 265.83 219.646 282 219.67 Z" style="paint-order: fill; stroke: url(&quot;#gradient-11&quot;); isolation: isolate; fill: rgb(247, 243, 239); stroke-linecap: round; stroke-linejoin: round; stroke-width: 4px;"/><path class="cls-2" d="M 342.87 287.3 L 342.87 572.93 C 342.87 588.12 331.77 600.44 318.09 600.44 L 245.83 600.44 C 232.14 600.44 221.05 588.12 221.05 572.93 L 221.05 287.3 C 221.05 256.98 239.05 231.3 263.78 222.74 L 263.78 124.84 C 263.78 119.34 267.78 114.84 272.78 114.84 L 291.18 114.84 C 296.18 114.84 300.18 119.31 300.18 124.84 L 300.18 222.74 C 309.736 226.136 318.275 231.899 325 239.49 C 336.653 252.675 343.018 269.704 342.87 287.3 Z" style="paint-order: fill; stroke: url(&quot;#gradient-12&quot;); fill-rule: evenodd; fill: rgb(255, 255, 255); stroke-linecap: round; stroke-linejoin: round; stroke-width: 4px;"/><path class="cls-2" d="M230.15,566.07V287.68H333.77V566.07c0,12.56-8.79,22.75-19.63,22.75H249.77C238.94,588.82,230.15,578.63,230.15,566.07Z" style="paint-order: fill; stroke: url(&quot;#gradient-13&quot;); fill: rgb(247, 243, 239); stroke-linecap: round; stroke-linejoin: round; stroke-width: 4px;"/><path class="cls-3" d="M 342.87 286.478 L 342.87 572.108 C 342.952 579.881 339.976 587.443 334.38 592.838 C 329.525 597.519 322.977 599.767 317.89 593.486 C 314.773 589.637 313.733 589.464 304.505 588.743 L 268.773 588.587 C 257.318 587.999 254.925 593.857 254.871 593.937 C 252.129 603.435 236.101 599.179 229.55 592.838 C 223.962 587.429 220.969 579.875 221.05 572.098 L 221.05 286.478 C 221.05 256.158 239.05 230.478 263.78 221.918 L 263.78 124.018 C 263.78 118.518 267.78 114.018 272.78 114.018 L 291.18 114.018 C 296.18 114.018 300.18 118.488 300.18 124.018 L 300.18 221.918 C 309.736 225.314 318.275 231.077 325 238.668 C 336.653 251.853 343.018 268.882 342.87 286.478 Z" style="paint-order: fill; stroke: url(&quot;#gradient-14&quot;); fill: rgb(229, 123, 7); stroke-linecap: round; stroke-linejoin: round; stroke-width: 4px;"/><rect class="cls-2" x="246.75" y="325.163" width="70.43" height="146.37" style="paint-order: fill; stroke: url(&quot;#gradient-15&quot;); fill: rgb(253, 242, 233); stroke-linecap: round; stroke-linejoin: round; stroke-width: 4px;"/><path class="cls-2" d="M272.31,112.72h19.31a10.44,10.44,0,0,1,10.44,10.44v33.4a0,0,0,0,1,0,0H261.86a0,0,0,0,1,0,0v-33.4A10.44,10.44,0,0,1,272.31,112.72Z" style="paint-order: fill; stroke: url(&quot;#gradient-16&quot;); fill: rgb(253, 242, 233); stroke-linecap: round; stroke-linejoin: round; stroke-width: 4px;"/></g><g id="GLASS_OF_WINE" data-name="GLASS OF WINE"><path class="cls-2" d="M452.77,455.49h0c-10.78,0-19.52,9.7-19.52,21.67v86c0,10.53,6.07,19.87,15.07,23.2l20,7.38c1.59.58,1.21,3.2-.47,3.2H391.92c-1.68,0-2.06-2.62-.46-3.2l20-7.38c9-3.33,15.07-12.67,15.07-23.2v-86c0-12-8.74-21.67-19.51-21.67h45.78Z" style="paint-order: fill; stroke: url(&quot;#gradient-17&quot;); fill: rgb(247, 243, 239); stroke-linecap: round; stroke-linejoin: round; stroke-width: 4px;"/><path class="cls-2" d="M454.19,455.49H405.56c-15.14,0-27-14.46-25.6-31.2l9.79-116.36H470l9.79,116.36C481.19,441,469.33,455.49,454.19,455.49Z" style="paint-order: fill; stroke: url(&quot;#gradient-18&quot;); fill: rgb(247, 243, 239); stroke-linecap: round; stroke-linejoin: round; stroke-width: 4px;"/><path class="cls-3" d="M449.68,445.94H410.07c-12.33,0-22-11.77-20.85-25.41L391.88,389h76l2.65,31.51C471.67,434.17,462,445.94,449.68,445.94Z" style="paint-order: fill; stroke: url(&quot;#gradient-19&quot;); fill: rgb(229, 123, 7); stroke-linecap: round; stroke-linejoin: round; stroke-width: 4px;"/></g></g><g transform="matrix(0.262004, 0, 0, 0.272015, 313.273773, 59.299686)" style=""><path style="opacity: 1; stroke: currentcolor;" fill="#040302" d="M 315.5,118.5 C 320.635,117.426 324.468,119.093 327,123.5C 326.388,155.936 329.722,187.936 337,219.5C 346.917,257.75 371.084,281.584 409.5,291C 440.134,297.47 471.134,300.47 502.5,300C 506.666,300.985 508.666,303.652 508.5,308C 508.207,311.911 506.207,314.578 502.5,316C 477.056,316.093 451.723,317.76 426.5,321C 373.356,328.477 342.189,358.644 333,411.5C 328.973,438.002 326.973,464.668 327,491.5C 324.305,497.098 320.138,498.598 314.5,496C 312.513,494.681 311.346,492.848 311,490.5C 311.828,457.711 308.494,425.378 301,393.5C 290.549,356.716 266.716,333.883 229.5,325C 198.511,318.6 167.178,315.6 135.5,316C 127.939,311.175 127.606,305.841 134.5,300C 166.184,300.479 197.517,297.479 228.5,291C 261.453,283.7 284.287,264.534 297,233.5C 304.67,210.492 309.003,186.825 310,162.5C 310.333,149.833 310.667,137.167 311,124.5C 312.332,122.34 313.832,120.34 315.5,118.5 Z"/></g><g transform="matrix(0.268151, 0, 0, 0.273882, 311.458099, 58.547428)" style=""><path style="opacity: 1;" fill="#ecad00" d="M 318.5,218.5 C 323.841,238.182 332.674,256.182 345,272.5C 362.502,290.169 383.336,302.002 407.5,308C 360,319.5 330.5,349 319,396.5C 310.904,358.751 289.404,331.918 254.5,316C 246.637,312.934 238.637,310.268 230.5,308C 278.525,296.475 307.858,266.642 318.5,218.5 Z"/></g></svg>